<svg width="16" height="16" viewBox="0 0 16 16" fill="none" xmlns="http://www.w3.org/2000/svg">
<path d="M15.0001 5.00034H11.7139L9.14244 1.00034H11.0001C13.2092 1.00034 15.0001 2.7912 15.0001 5.00034Z" fill="white"/>
<path d="M5.00008 1.00034H7.95363L10.5251 5.00034H7.04699L4.4958 1.03182C4.66097 1.01104 4.82927 1.00034 5.00008 1.00034Z" fill="white"/>
<path d="M3.47916 1.29963C2.02433 1.89818 1.00008 3.32964 1.00008 5.00034H5.85818L3.47916 1.29963Z" fill="white"/>
<path fill-rule="evenodd" clip-rule="evenodd" d="M1.00008 6.00001H15.0001V11C15.0001 13.2091 13.2092 15 11.0001 15H5.00008C2.79094 15 1.00008 13.2091 1.00008 11V6.00001ZM10.3401 9.97415C10.5534 10.0968 10.5534 10.4033 10.3401 10.5259L6.98008 12.4569C6.76674 12.5795 6.50008 12.4262 6.50008 12.181V8.31902C6.50008 8.07381 6.76674 7.92056 6.98008 8.04316L10.3401 9.97415Z" fill="white"/>
</svg>
