<svg width="2048" height="2048" viewBox="0 0 2048 2048" fill="none" xmlns="http://www.w3.org/2000/svg">
<path d="M1779 1024.5C1779 607.805 1441.2 270.004 1024.5 270.004C607.802 270.004 270 607.805 270 1024.5C270 1378.35 513.598 1675.25 842.231 1756.78V1255.07H686.647V1024.5H842.231V925.154C842.231 668.346 958.448 549.316 1210.57 549.316C1258.37 549.316 1340.85 558.687 1374.59 568.061V777.07C1356.78 775.195 1325.85 774.257 1287.43 774.257C1163.71 774.257 1115.91 821.12 1115.91 942.963V1024.5H1362.35L1320.02 1255.07H1115.91V1773.48C1489.49 1728.35 1779 1410.26 1779 1024.5Z" fill="white"/>
</svg>
