<svg width="2048" height="2048" viewBox="0 0 2048 2048" fill="none" xmlns="http://www.w3.org/2000/svg">
<path d="M741.128 345.781C668.457 349.209 618.83 360.807 575.446 377.854C530.545 395.353 492.489 418.834 454.623 456.836C416.758 494.839 393.44 532.923 376.064 577.891C359.249 621.371 347.856 671.039 344.646 743.751C341.436 816.463 340.726 839.836 341.081 1025.31C341.436 1210.79 342.256 1234.04 345.78 1306.9C349.25 1379.56 360.806 1429.17 377.854 1472.57C395.38 1517.47 418.834 1555.51 456.85 1593.39C494.865 1631.27 532.922 1654.53 578 1671.93C621.439 1688.72 671.12 1700.17 743.819 1703.35C816.517 1706.54 839.917 1707.27 1025.34 1706.92C1210.76 1706.56 1234.1 1705.74 1306.95 1702.29C1379.8 1698.83 1429.15 1687.19 1472.57 1670.23C1517.47 1652.66 1555.54 1629.25 1593.39 1591.22C1631.24 1553.19 1654.54 1515.08 1671.91 1470.08C1688.74 1426.64 1700.17 1376.96 1703.32 1304.32C1706.51 1231.41 1707.26 1208.14 1706.9 1022.69C1706.55 837.24 1705.72 813.991 1702.26 741.156C1698.8 668.321 1687.23 618.858 1670.2 575.433C1652.65 530.532 1629.22 492.516 1591.22 454.61C1553.21 416.703 1515.08 393.413 1470.09 376.092C1426.63 359.277 1376.97 347.816 1304.28 344.674C1231.58 341.532 1208.18 340.726 1022.69 341.082C837.199 341.437 813.977 342.229 741.128 345.781ZM749.105 1580.48C682.513 1577.58 646.355 1566.52 622.259 1557.26C590.349 1544.96 567.619 1530.1 543.604 1506.32C519.59 1482.54 504.837 1459.73 492.379 1427.88C483.022 1403.79 471.753 1367.67 468.638 1301.08C465.251 1229.1 464.54 1207.49 464.144 1025.15C463.748 842.8 464.445 821.217 467.6 749.215C470.441 682.677 481.574 646.478 490.822 622.396C503.116 590.445 517.923 567.756 541.76 543.755C565.597 519.754 588.341 504.974 620.21 492.516C644.278 483.118 680.396 471.944 746.961 468.775C818.99 465.36 840.573 464.677 1022.89 464.281C1205.21 463.885 1226.85 464.568 1298.91 467.737C1365.44 470.633 1401.66 481.657 1425.71 490.959C1457.64 503.253 1480.35 518.02 1504.35 541.897C1528.35 565.775 1543.15 588.437 1555.61 620.374C1565.02 644.375 1576.19 680.478 1579.33 747.084C1582.76 819.113 1583.54 840.71 1583.87 1023.02C1584.2 1205.32 1583.55 1226.97 1580.4 1298.95C1577.49 1365.54 1566.45 1401.71 1557.18 1425.84C1544.88 1457.73 1530.06 1480.48 1506.21 1504.46C1482.36 1528.45 1459.64 1543.23 1427.76 1555.69C1403.72 1565.07 1367.56 1576.27 1301.05 1579.44C1229.02 1582.83 1207.44 1583.54 1025.05 1583.94C842.663 1584.33 821.148 1583.6 749.119 1580.48M1305.9 658.964C1305.93 675.175 1310.76 691.014 1319.79 704.478C1328.82 717.942 1341.64 728.425 1356.63 734.603C1371.62 740.78 1388.1 742.374 1403.99 739.183C1419.89 735.992 1434.48 728.159 1445.92 716.675C1457.36 705.191 1465.14 690.571 1468.28 674.666C1471.41 658.76 1469.75 642.282 1463.52 627.317C1457.29 612.352 1446.76 599.571 1433.26 590.59C1419.76 581.61 1403.91 576.834 1387.7 576.867C1365.96 576.91 1345.14 585.583 1329.8 600.979C1314.46 616.374 1305.86 637.231 1305.9 658.964ZM673.306 1024.68C673.688 1218.38 830.997 1375.05 1024.65 1374.68C1218.31 1374.31 1375.09 1217.02 1374.72 1023.32C1374.35 829.618 1217 672.91 1023.32 673.293C829.631 673.675 672.937 831.011 673.306 1024.68ZM796.328 1024.44C796.239 979.408 809.504 935.364 834.447 897.874C859.39 860.384 894.889 831.133 936.457 813.819C978.024 796.504 1023.79 791.905 1067.97 800.602C1112.15 809.3 1152.76 830.903 1184.67 862.68C1216.57 894.457 1238.33 934.981 1247.21 979.128C1256.08 1023.27 1251.66 1069.06 1234.51 1110.7C1217.36 1152.33 1188.25 1187.95 1150.86 1213.04C1113.47 1238.13 1069.48 1251.57 1024.45 1251.66C994.551 1251.72 964.932 1245.89 937.285 1234.51C909.639 1223.12 884.506 1206.4 863.322 1185.3C842.138 1164.2 825.318 1139.13 813.823 1111.53C802.329 1083.93 796.383 1054.34 796.328 1024.44Z" fill="#FEC31F"/>
</svg>
