<svg width="2048" height="2048" viewBox="0 0 2048 2048" fill="none" xmlns="http://www.w3.org/2000/svg">
<path fill-rule="evenodd" clip-rule="evenodd" d="M1606.01 533.153C1670.2 550.323 1720.65 600.732 1737.83 664.877C1768.88 781.024 1769.01 1023.5 1769.01 1023.5C1769.01 1023.5 1769.01 1265.98 1737.83 1382.13C1720.65 1446.27 1670.2 1496.68 1606.01 1513.85C1489.78 1545 1023.5 1545 1023.5 1545C1023.5 1545 557.226 1545 440.994 1513.85C376.803 1496.68 326.358 1446.27 309.175 1382.13C278 1265.98 278 1023.5 278 1023.5C278 1023.5 278 781.024 309.175 664.877C326.358 600.732 376.803 550.323 440.994 533.153C557.226 502 1023.5 502 1023.5 502C1023.5 502 1489.78 502 1606.01 533.153ZM1261.61 1023.52L874.257 1246.98V800.054L1261.61 1023.52Z" fill="#FEC31F"/>
</svg>
