<svg width="2048" height="2048" viewBox="0 0 2048 2048" fill="none" xmlns="http://www.w3.org/2000/svg">
<path d="M606.406 1116.93L301.072 1017.46C301.072 1017.46 264.581 1002.65 276.331 969.083C278.75 962.161 283.629 956.27 298.226 946.148C365.88 898.994 1550.44 473.261 1550.44 473.261C1550.44 473.261 1583.89 461.991 1603.62 469.487C1608.5 470.997 1612.89 473.777 1616.34 477.541C1619.79 481.305 1622.18 485.919 1623.27 490.91C1625.4 499.727 1626.29 508.797 1625.92 517.86C1625.82 525.699 1624.87 532.966 1624.15 544.36C1616.94 660.758 1401.04 1529.47 1401.04 1529.47C1401.04 1529.47 1388.12 1580.3 1341.84 1582.04C1330.47 1582.41 1319.14 1580.48 1308.52 1576.38C1297.91 1572.27 1288.23 1566.07 1280.07 1558.15C1189.25 1480.03 875.343 1269.09 805.979 1222.7C804.415 1221.63 803.097 1220.24 802.115 1218.62C801.133 1217 800.51 1215.19 800.287 1213.31C799.317 1208.42 804.634 1202.37 804.634 1202.37C804.634 1202.37 1351.22 716.553 1365.77 665.553C1366.89 661.602 1362.64 659.653 1356.93 661.383C1320.62 674.738 691.294 1072.14 621.836 1115.99C616.837 1117.51 611.552 1117.83 606.406 1116.93Z" fill="#FEC31F"/>
</svg>
