<svg xmlns="http://www.w3.org/2000/svg" viewBox="0 0 2048 2048"><defs><style>.cls-1{fill:none;}.cls-2{fill:#fff;}</style></defs><title>F_Segno_Siegel-des-Laufs-der-Welt</title><g id="Tool_Segno_Kopie_5" data-name="Tool_Segno Kopie 5"><g id="Collapsed_Kopie_6" data-name="Collapsed Kopie 6"><g id="R_Kopie_6" data-name="R Kopie 6"><rect id="BG-2" data-name="BG" class="cls-1" x="0.5" y="0.5" width="2048" height="2048"/><path id="Mond" class="cls-2" d="M1512.07,794.51a83.13,83.13,0,1,1-141.24,69.38,95,95,0,1,0,93.06-93.06A82.7,82.7,0,0,1,1512.07,794.51Z"/></g><g id="L_Kopie_6" data-name="L Kopie 6"><rect id="BG-3" data-name="BG" class="cls-1" x="0.5" y="0.5" width="2048" height="2048" transform="translate(2049 2049) rotate(180)"/><polygon class="cls-2" points="583 1087.76 598.53 1125.04 630.62 1100.52 625.43 1140.57 665.49 1135.38 640.96 1167.47 678.25 1183 640.96 1198.53 665.49 1230.62 625.43 1225.43 630.62 1265.48 598.53 1240.96 583 1278.24 567.47 1240.96 535.38 1265.48 540.57 1225.43 500.51 1230.62 525.04 1198.53 487.75 1183 525.04 1167.47 500.51 1135.38 540.57 1140.57 535.38 1100.52 567.47 1125.04 583 1087.76"/></g><rect class="cls-2" x="1413.05" y="376.5" width="36" height="71" transform="translate(296.4 1376.48) rotate(-56.43)"/><rect class="cls-2" x="599.95" y="1601.5" width="36" height="71" transform="translate(-1087.69 1246.57) rotate(-56.43)"/><rect class="cls-2" x="1093.25" y="832.28" width="70.54" height="71" transform="translate(-218.57 1328.16) rotate(-56.43)"/><rect class="cls-2" x="1145.27" y="753.92" width="70.54" height="71" transform="matrix(0.55, -0.83, 0.83, 0.55, -130.04, 1336.44)"/><rect class="cls-2" x="1197.28" y="675.55" width="70.54" height="71" transform="translate(-41.49 1344.77) rotate(-56.43)"/><rect class="cls-2" x="1301.3" y="518.83" width="70.54" height="71" transform="translate(135.56 1361.36) rotate(-56.43)"/><rect class="cls-2" x="1353.32" y="440.47" width="70.54" height="71" transform="translate(224.12 1369.7) rotate(-56.43)"/><rect class="cls-2" x="1249.29" y="597.19" width="70.54" height="71" transform="matrix(0.55, -0.83, 0.83, 0.55, 47.04, 1353.06)"/><rect class="cls-2" x="833.19" y="1224.08" width="70.54" height="71" transform="translate(-661.26 1286.6) rotate(-56.43)"/><rect class="cls-2" x="885.21" y="1145.72" width="70.54" height="71" transform="translate(-572.72 1294.91) rotate(-56.43)"/><rect class="cls-2" x="781.18" y="1302.45" width="70.54" height="71" transform="translate(-749.8 1278.29) rotate(-56.43)"/><rect class="cls-2" x="625.15" y="1537.53" width="70.54" height="71" transform="translate(-1015.41 1253.36) rotate(-56.43)"/><rect class="cls-2" x="677.16" y="1459.17" width="70.54" height="71" transform="translate(-926.87 1261.68) rotate(-56.43)"/><rect class="cls-2" x="729.17" y="1380.81" width="70.54" height="71" transform="translate(-838.33 1269.97) rotate(-56.43)"/><path class="cls-2" d="M1458.67,1297c-20.7-105-84.85-181.21-167.07-243-11.24-8.45-373-198-400.92-214.49-45.2-26.62-90.74-54.26-130.63-88C698.91,700,683.38,611.47,717.29,546.82c19.4-37,49.93-54.13,90.63-54.13l3.17,0c43.12.93,47.68,35.75,57.89,65.49,4.14,12,6.78,24.61,11.06,36.59,16.74,47,47.85,71.84,87.36,71.84,12.52,0,25.89-2.5,39.91-7.59C1062,639.2,1083.75,584,1058.43,524.9c-23.33-54.41-64.23-90.85-120.76-108.4a242.18,242.18,0,0,0-72-11C701,405.52,555.1,573.38,590.33,752c20.7,105,84.85,181.21,167.07,243,11.24,8.45,373,198,400.92,214.49,45.2,26.62,90.74,54.26,130.63,88,61.14,51.64,76.67,140.12,42.76,204.77-19.4,37-49.92,54.13-90.63,54.13l-3.17,0c-43.12-.93-47.68-35.75-57.89-65.49-4.14-12-6.78-24.61-11.06-36.59-16.74-47-47.85-71.84-87.36-71.84-12.52,0-25.89,2.5-39.91,7.59C987,1409.8,965.25,1465,990.57,1524.1c23.33,54.41,64.23,90.85,120.76,108.4a242.18,242.18,0,0,0,72,11C1348,1643.47,1493.9,1475.62,1458.67,1297ZM972,488a77,77,0,1,1-77,77A77,77,0,0,1,972,488Zm105,1073a77,77,0,1,1,77-77A77,77,0,0,1,1077,1561Z"/></g></g></svg>