<svg xmlns="http://www.w3.org/2000/svg" viewBox="0 0 2048 2048"><defs><style>.cls-1{fill:none;}.cls-2{fill:#fff;}</style></defs><title>N_Segno_Initialen</title><g id="Segno_m_Initialen1"><g id="Collapsed_Kopie_2" data-name="Collapsed Kopie 2"><g id="R_Kopie_2" data-name="R Kopie 2"><rect id="BG-2" data-name="BG" class="cls-1" x="0.5" y="0.5" width="2048" height="2048"/></g><g id="L_Kopie_2" data-name="L Kopie 2"><rect id="BG-3" data-name="BG" class="cls-1" x="0.5" y="0.5" width="2048" height="2048" transform="translate(2049 2049) rotate(180)"/></g><path class="cls-2" d="M1084.15,904.31l46.42,24.58,340-512.26L1455,416s11.15-44.94-1-38c-7,4-47,42-47,42s14.51-39,4.42-42.63c-.18-.16-162.79,244.57-344.27,517.93Z"/><path class="cls-2" d="M981.48,1153.51l-16.64-8.82-46.77-24.78c-179.82,271-339.83,512.3-339.65,512.46C583.66,1649.9,653,1621,653,1621l-15.42,50.63Z"/><path class="cls-2" d="M1458.67,1297c-20.7-105-84.85-181.21-167.07-243-11.24-8.44-373-198-400.92-214.48-45.2-26.62-90.74-54.26-130.63-88C698.91,700,683.38,611.47,717.29,546.82c19.9-37.93,51.51-55,93.8-54.1,15.87.35,26.52,5.28,34.15,12.86.68.68,2,2.11,2,2.11S1017.93,463.93,1017,463c-21.41-21.23-48-36.79-79.37-46.54C747,357.28,550,547.6,590.33,752c20.7,105,84.85,181.21,167.07,243,11.24,8.44,373,198,400.92,214.48,45.2,26.62,90.74,54.26,130.63,88,61.14,51.64,76.67,140.12,42.76,204.77-19.9,37.93-51.51,55-93.8,54.1-9.91-.22-17.78-2.22-24.15-5.54C1212.29,1550,1187,1529,1187,1529s-44,111.08-42.43,111.34C1324.12,1669.57,1496.65,1489.53,1458.67,1297Z"/></g><g id="Initialen__Kopie" data-name="Initialen_ Kopie"><path class="cls-2" d="M1607,1008.84s35.53-25.09,22.09-25c-55.82.22-111.64.31-167.46,1-9.91.13-19.84.37-29.76.88q38.58-80,77.17-160.08l26.87-55.76c3.6-7.46,17.29-26,12.13-31.86-6.24-7-30.93-.09-39.79.59-48.46,3.69-123.94,12.71-171.59,22.26-12.31,2.46,36.89,19.29,36.89,19.29s-43,30.87-29.78,28.23c32.94-6.6,96.22-14.68,129.58-18.52L1396,950.34l-26.88,55.76c-3.59,7.46-17.23,26.07-12.07,31.9,5.84,6.6,31.2.83,39.74-.63,4.89-.83,9.8-1.56,14.73-2.16q3.91-.46,7.84-.85l2.93-.27,3-.24,1.32-.08,3.9-.22q3.4-.18,6.81-.31c5.19-.2,10.37-.33,15.56-.42,19.92-.35,39.86-.37,59.79-.5q47.26-.3,94.54-.52l18.94-.08C1638.64,1031.67,1607,1008.84,1607,1008.84Z"/><path class="cls-2" d="M780.52,1179.35c-51.08-13.28-117.91-19.67-170.38-23.25,30.78-36.16,59.19-74.3,86.72-113,4.95-7-15.93-7.54-15.93-7.54s33-23.57,24.8-23.23c-56.24,2.38-137.3-28.42-193.53-26-6.62.28-38.53,4.73-38.53,4.73s32.81,12.59,32.09,13.43c-9.33,4.84-30.8-2.15-28.74,8.88,15.71,84.21,45.46,172.76,66.28,255.74,5.07,20.17,16.9,61.27,20.88,81.68-8.76,7.85,23-12.33,23-12.33s-36.85,57.9-25.81,50.22c63.93-44.48,175.41-136.42,233.64-188.15,7.18-6.38-37-.75-37-.75S788.24,1181.36,780.52,1179.35Zm-124.11,28.91c16.1,1.82,32.16,4.07,48.12,6.86l1.5.27q-51.67,43.72-106.25,83.81c-7-32.59-15.49-64.85-24.34-97C602.48,1203.41,629.51,1205.22,656.41,1208.26Zm-125-173.74c33.79,2.3,67,11.65,100.65,16.34q-15,20.4-30.61,40.38-14.43,18.4-29.54,36.24c-4.29,5-8.46,10.39-13,15.23-6-21.47-11.82-43-17.24-64.54C538,1063.67,534.52,1049.13,531.38,1034.52Z"/><path class="cls-2" d="M1142,1406c-4.54-4.17-17.75.21-24.12.57a456,456,0,0,0-102,17.3c8.31-28.43,17.75-56.55,25.09-85.27,4.26-16.7,13.71-58.69,17-75.6,2.42-12.28-26,13-26,13s-11-65-26-.59c-6.35,27.21-12,54.57-19.84,81.38-6,20.52-12.81,40.8-18.68,61.36q-5.19,18.18-9.24,36.64c-1.85,8.5-10.52,32.91-4.22,39.21,5.52,5.52,26.07-6.57,33.75-9.69a428.12,428.12,0,0,1,66.1-20.79c11-2.49,22-4.47,33.16-6.13l.39-.06,2.85-.35q-1.5,10.08-3.15,20.14-4.21,25.47-9.44,50.75-10.35,50.14-24.59,99.39c-5.42,18.73-22.84,70.27-29.07,88.74-4,11.91,38-37,38-37s10.7,46.75,15,34c22.24-65.92,44.19-150.74,55.75-219.35,3.53-21,6.52-42,9.13-63.08C1142.56,1425.14,1145.91,1409.59,1142,1406Z"/><path class="cls-2" d="M1113,516s44-43,2.72-28.69c-45.72,15.85-91.38,31.5-137.62,45.62a19.92,19.92,0,0,0-5.48.93,27.38,27.38,0,0,0-5.32,2.38c-21.42,6.58-42.8,13.28-64,20.51-20.81,7.09-41.44,14.71-61.81,23-6,2.46-10.92,5.19-14.34,11C824.14,595.94,868,593,868,593s-43.45,44.08-31,39c35-14.29,88.12-32.15,124.16-43.44,4.87,22.9,9.81,45.77,14.48,68.71,2.76,13.55,5.39,27.14,7.77,40.76q1.73,9.88,3.27,19.8.78,5.07,1.52,10.14c.25,1.72.5,3.44.74,5.16.08.58.3,2.18.47,3.38v0c.17,1.28.33,2.56.5,3.84q.39,3.11.77,6.23.78,6.42,1.49,12.86c1.05,9.5,7,60,7.83,69.54,1.12,12.47,18-59,18-59s27.2,48.39,26,35c-5.42-60.61-17-137.08-29.62-196.54q-3.63-17-7.24-34.08c20.77-6.38,41.54-12.8,62.18-19.61,19.9-6.56,39.65-13.54,59.16-21.18,6-2.35,11-5.26,14.34-11C1145.83,517.42,1113,516,1113,516Z"/></g></g></svg>