<svg width="2048" height="2048" viewBox="0 0 2048 2048" fill="none" xmlns="http://www.w3.org/2000/svg">
<g clip-path="url(#clip0_362_725)">
<path fill-rule="evenodd" clip-rule="evenodd" d="M1407.66 379.69L1470.52 423.361L1455.31 447.756L1355.31 385.691L1407.66 379.69Z" fill="white"/>
<path fill-rule="evenodd" clip-rule="evenodd" d="M591.957 1602.32L689.756 1679.56L639.634 1683.96L576.687 1626.86L591.957 1602.32Z" fill="white"/>
<path fill-rule="evenodd" clip-rule="evenodd" d="M1122.79 809.885L1204.17 836.641L1170.8 888.351L1086.49 853.625L1122.79 809.885Z" fill="white"/>
<path fill-rule="evenodd" clip-rule="evenodd" d="M1159.87 740.284L1261.77 771.832L1223.92 815.157L1105.37 769.115L1159.87 740.284Z" fill="white"/>
<path fill-rule="evenodd" clip-rule="evenodd" d="M1199.59 679.389L1297.9 708.941L1266.12 743.979L1183.76 712.211L1199.59 679.389Z" fill="white"/>
<path fill-rule="evenodd" clip-rule="evenodd" d="M1291.13 511.49L1385.52 554.257L1347.14 601.876L1266.65 567.366L1291.13 511.49Z" fill="white"/>
<path fill-rule="evenodd" clip-rule="evenodd" d="M1363.15 423.444L1452.02 479.663L1404.9 525.655L1326.18 493.237L1363.15 423.444Z" fill="white"/>
<path fill-rule="evenodd" clip-rule="evenodd" d="M1246.97 597.629L1355.31 634.789L1295.73 683.487L1204.17 640.256L1246.97 597.629Z" fill="white"/>
<path fill-rule="evenodd" clip-rule="evenodd" d="M834.913 1217.94L881.074 1264.96L881.066 1337.89L794.66 1242.98L834.913 1217.94Z" fill="white"/>
<path fill-rule="evenodd" clip-rule="evenodd" d="M887.348 1134.94L959.979 1199.62L927.693 1259.57L841.598 1173.2L887.348 1134.94Z" fill="white"/>
<path fill-rule="evenodd" clip-rule="evenodd" d="M792.078 1290.75L845.774 1357.1L824.961 1419.3L748.211 1330.79L792.078 1290.75Z" fill="white"/>
<path fill-rule="evenodd" clip-rule="evenodd" d="M643.386 1525.37L694.623 1578.85L683.851 1628.06L599.113 1565.15L643.386 1525.37Z" fill="white"/>
<path fill-rule="evenodd" clip-rule="evenodd" d="M692.447 1439.05L764.945 1501.04L733.323 1560.72L646.169 1474.87L692.447 1439.05Z" fill="white"/>
<path fill-rule="evenodd" clip-rule="evenodd" d="M747.561 1384.19L789.328 1431.06L776.786 1468.1L699.379 1402.43L747.561 1384.19Z" fill="white"/>
<path fill-rule="evenodd" clip-rule="evenodd" d="M1450.57 744.286C1455.55 743.669 1460.61 743.352 1465.75 743.352C1533.34 743.352 1588.21 798.224 1588.21 865.811C1588.21 933.397 1533.34 988.269 1465.75 988.269C1398.17 988.269 1343.3 933.397 1343.3 865.811C1343.3 860.67 1343.61 855.602 1344.23 850.627C1350.69 896.217 1389.92 931.326 1437.28 931.326C1489.16 931.326 1531.27 889.212 1531.27 837.339C1531.27 789.976 1496.16 750.749 1450.57 744.286Z" fill="white"/>
<path d="M583.013 1271.35C631.806 1271.35 671.361 1231.79 671.361 1183C671.361 1134.21 631.806 1094.65 583.013 1094.65C534.219 1094.65 494.664 1134.21 494.664 1183C494.664 1231.79 534.219 1271.35 583.013 1271.35Z" fill="white"/>
<path fill-rule="evenodd" clip-rule="evenodd" d="M583.012 1024L606.253 1126.89L695.442 1070.57L639.122 1159.76L742.012 1183L639.122 1206.24L695.442 1295.43L606.253 1239.11L583.012 1342L559.771 1239.11L470.582 1295.43L526.902 1206.24L424.012 1183L526.902 1159.76L470.582 1070.57L559.771 1126.89L583.012 1024Z" fill="white"/>
<path d="M1515.64 1347.61C1553.15 1026.76 1311.32 1102.22 1270.92 982.281C1242.62 898.275 1179.71 952.636 890.654 839.499C708.571 768.232 741.727 782 701.827 748.3C640.727 696.8 729.77 470.574 763.67 405.874C783.07 368.874 887.381 302.662 894.954 419.944H819.018C887.381 487.999 829.782 543.345 839.982 573.045C844.082 585.045 750.003 706.789 887.381 737.071C927.419 745.897 993.76 773.921 1023.95 748.3C1076.29 703.887 1114.42 648.692 1128.42 643.592C1183.12 623.792 1124.46 574.511 1099.16 515.411C1079.54 372.443 1017.7 390.738 973.557 329.062C950.257 321.762 858.844 281.5 819.018 308.805C683.179 401.939 452.529 595.937 487.729 774.537C508.429 879.537 648.214 1030.77 774.11 1049.64C967.899 1078.69 948.619 1162.61 1023.95 1198.89C1109.74 1240.2 1248.95 1263.8 1288.85 1297.5C1349.95 1349.1 1365.55 1437.6 1331.65 1502.3C1312.25 1539.3 1268.13 1685.94 1187.27 1685.94C1126.06 1685.94 1187.27 1649.63 1240.37 1604.82C1261.56 1586.93 1197.47 1562.27 1187.27 1532.57C1185.29 1401.4 1221.15 1466.05 1240.37 1397.57C1249.11 1366.41 1165.66 1318.46 1126.06 1318.46C1113.56 1318.46 1052.84 1307.59 984.32 1410.18C962.457 1442.91 887.657 1488.9 912.957 1548C936.257 1602.4 1009.77 1670.02 1054.82 1685.94C1097.33 1700.96 1196.01 1785.75 1240.37 1736.45C1421.14 1535.56 1500.08 1480.7 1515.64 1347.61ZM971.954 487.999C1014.45 487.999 1036.76 500.401 1057.63 537.423C1121.3 650.367 1068.39 680.348 969.257 676.52C926.788 674.881 894.954 607.499 894.954 564.999C894.954 522.499 929.454 487.999 971.954 487.999ZM1074.6 1577.05C1036.78 1557.65 999.954 1526.5 999.954 1484C999.954 1441.5 1032.1 1407.34 1074.6 1407.34C1117.1 1407.34 1128.95 1431.43 1146.38 1470.19C1155.66 1490.81 1131.16 1606.05 1074.6 1577.05Z" fill="white"/>
<path d="M2273.11 623.482L2131.16 628.434L2102.27 800.926H2047.8L2061.83 579.74H2576.01L2585.91 800.926H2533.91L2506.68 628.434L2363.9 623.482V1144.26L2481.09 1152.51V1192.95H2165.82V1152.51L2273.11 1144.26V623.482ZM2713.32 630.909L2648.12 621.006V579.74H2872.61V621.006L2801.63 630.909V852.921H3092.15V630.909L3025.3 621.006V579.74H3246.48V621.006L3181.28 630.909V1144.26L3246.48 1152.51V1192.95H3024.47V1152.51L3092.15 1144.26V904.091H2801.63V1144.26L2873.44 1152.51V1192.95H2646.47V1152.51L2713.32 1144.26V630.909ZM3395.14 630.909L3327.47 621.006V579.74H3747.56L3759.11 707.664H3712.07L3688.13 627.608L3483.45 622.656V855.397L3621.28 852.921L3632.84 784.419H3678.23V974.243H3632.84L3621.28 903.265L3483.45 900.789V1146.74L3716.19 1138.48L3759.93 1034.49L3808.63 1049.35L3784.69 1192.95H3326.64V1152.51L3395.14 1144.26V630.909ZM4065.61 574.788H4156.39L4356.94 1144.26L4408.11 1152.51V1192.95H4190.23V1152.51L4258.73 1144.26L4219.94 1022.11H3978.95L3940.16 1144.26L4011.14 1152.51V1192.95H3815.53V1152.51L3866.7 1144.26L4065.61 574.788ZM4117.6 706.839L4096.97 634.211L4077.16 708.49L3993.8 973.418H4204.26L4117.6 706.839ZM4637.04 623.482L4495.09 628.434L4466.2 800.926H4411.73L4425.76 579.74H4939.94L4949.84 800.926H4897.85L4870.61 628.434L4727.83 623.482V1144.26L4845.03 1152.51V1192.95H4529.75V1152.51L4637.04 1144.26V623.482ZM5075.61 630.909L5007.93 621.006V579.74H5428.02L5439.57 707.664H5392.53L5368.6 627.608L5163.92 622.656V855.397L5301.74 852.921L5313.3 784.419H5358.69V974.243H5313.3L5301.74 903.265L5163.92 900.789V1146.74L5396.66 1138.48L5440.4 1034.49L5489.09 1049.35L5465.16 1192.95H5007.1V1152.51L5075.61 1144.26V630.909ZM5544.69 1152.51L5613.19 1144.26V630.909L5548.82 620.18V579.74H5656.93C5672.34 579.74 5693.25 578.639 5719.66 576.438C5747.17 574.237 5768.63 573.137 5784.03 573.137C5864.92 573.137 5922.41 586.342 5956.53 612.752C5991.19 638.613 6008.52 679.603 6008.52 735.725C6008.52 774.79 5997.52 810.554 5975.51 843.017C5954.05 875.48 5924.34 897.488 5886.37 909.043C5903.98 918.396 5920.21 934.628 5935.07 957.737C5950.47 980.295 5969.18 1011.93 5991.19 1052.65C6008.25 1083.46 6021.18 1106.02 6029.98 1120.32C6039.33 1134.63 6048.14 1142.61 6056.39 1144.26L6088.58 1152.51V1192.95H5974.68C5965.88 1192.95 5955.98 1183.6 5944.97 1164.89C5933.97 1145.63 5919.39 1116.2 5901.23 1076.58C5881.42 1033.12 5864.09 998.728 5849.23 973.418C5834.93 947.558 5820.62 931.051 5806.32 923.898C5747.45 923.898 5712.51 923.623 5701.5 923.073V1144.26L5783.21 1152.51V1192.95H5544.69V1152.51ZM5799.72 879.331C5834.93 879.331 5862.72 867.777 5883.07 844.668C5903.43 821.559 5913.61 787.17 5913.61 741.503C5913.61 701.337 5903.16 670.8 5882.25 649.892C5861.89 628.434 5826.4 617.704 5775.78 617.704C5758.17 617.704 5740.57 618.805 5722.96 621.006C5711.96 622.106 5704.8 622.656 5701.5 622.656V878.506C5709.76 879.056 5726.81 879.331 5752.67 879.331H5799.72Z" fill="white"/>
</g>
<defs>
<clipPath id="clip0_362_725">
<rect width="2048" height="2048" fill="white"/>
</clipPath>
</defs>
</svg>
