<svg width="2048" height="2048" viewBox="0 0 2048 2048" fill="none" xmlns="http://www.w3.org/2000/svg">
<path d="M1084.2 904.3L1130.6 928.9L1470.6 416.6L1455 416C1455 416 1466.2 371.1 1454 378C1447 382 1407 420 1407 420C1407 420 1421.5 381 1411.4 377.4C1411.2 377.2 1248.6 622 1067.1 895.3L1084.2 904.3Z" fill="white"/>
<path d="M981.5 1153.5L964.9 1144.7L918.1 1119.9C738.3 1390.9 578.3 1632.2 578.4 1632.4C583.6 1649.9 653 1621 653 1621L637.6 1671.6L981.5 1153.5Z" fill="white"/>
<path d="M1458.7 1297C1438 1192 1373.9 1115.8 1291.6 1054C1280.4 1045.6 918.601 856 890.701 839.5C845.501 812.9 800.001 785.2 760.101 751.5C699.001 700 683.401 611.4 717.301 546.8C737.201 508.9 768.801 491.8 811.101 492.7C827.001 493.1 837.601 498 845.301 505.6C846.001 506.3 847.301 507.7 847.301 507.7C847.301 507.7 1018 463.9 1017.1 463C995.701 441.8 969.101 426.2 937.701 416.5C747.001 357.3 550.001 547.6 590.301 752C611.001 857 675.101 933.201 757.401 995C768.601 1003.4 1130.4 1193 1158.3 1209.5C1203.5 1236.1 1249 1263.8 1288.9 1297.5C1350 1349.1 1365.6 1437.6 1331.7 1502.3C1311.8 1540.2 1280.2 1557.3 1237.9 1556.4C1228 1556.2 1220.1 1554.2 1213.7 1550.9C1212.2 1550.1 1186.9 1529.1 1186.9 1529.1C1186.9 1529.1 1142.9 1640.2 1144.5 1640.4C1324.1 1669.6 1496.7 1489.5 1458.7 1297Z" fill="white"/>
<path d="M1607 1008.8C1607 1008.8 1642.5 983.7 1629.1 983.8C1573.3 984 1517.5 984.1 1461.6 984.8C1451.7 984.9 1441.8 985.2 1431.8 985.7C1457.5 932.4 1483.2 879 1509 825.6L1535.9 769.8C1539.5 762.3 1553.2 743.8 1548 737.9C1541.8 730.9 1517.1 737.8 1508.2 738.5C1459.7 742.2 1384.3 751.2 1336.6 760.8C1324.3 763.3 1373.5 780.1 1373.5 780.1C1373.5 780.1 1330.5 811 1343.7 808.3C1376.6 801.7 1439.9 793.6 1473.3 789.8L1396 950.3L1369.1 1006.1C1365.5 1013.6 1351.9 1032.2 1357 1038C1362.8 1044.6 1388.2 1038.8 1396.7 1037.4C1401.6 1036.6 1406.5 1035.8 1411.4 1035.2C1414 1034.9 1416.6 1034.6 1419.2 1034.4L1422.1 1034.1L1425.1 1033.9L1426.4 1033.8L1430.3 1033.6C1432.6 1033.5 1434.8 1033.4 1437.1 1033.3C1442.3 1033.1 1447.5 1033 1452.7 1032.9C1472.6 1032.6 1492.6 1032.5 1512.5 1032.4C1544 1032.2 1575.5 1032 1607 1031.9L1625.9 1031.8C1638.6 1031.7 1607 1008.8 1607 1008.8Z" fill="white"/>
<path d="M780.5 1179.3C729.4 1166 662.6 1159.6 610.1 1156C640.9 1119.8 669.3 1081.7 696.8 1043C701.8 1036 680.9 1035.5 680.9 1035.5C680.9 1035.5 713.9 1011.9 705.7 1012.3C649.5 1014.7 568.4 983.9 512.2 986.3C505.6 986.6 473.7 991 473.7 991C473.7 991 506.5 1003.6 505.8 1004.4C496.5 1009.2 475 1002.2 477.1 1013.3C492.8 1097.5 522.6 1186.1 543.4 1269C548.5 1289.2 560.3 1330.3 564.3 1350.7C555.5 1358.5 587.3 1338.4 587.3 1338.4C587.3 1338.4 550.5 1396.3 561.5 1388.6C625.4 1344.1 736.9 1252.2 795.1 1200.4C802.3 1194 758.1 1199.6 758.1 1199.6C758.1 1199.6 788.2 1181.4 780.5 1179.3ZM656.4 1208.3C672.5 1210.1 688.6 1212.4 704.5 1215.2L706 1215.5C671.6 1244.6 636.1 1272.6 599.7 1299.3C592.7 1266.7 584.2 1234.5 575.4 1202.3C602.5 1203.4 629.5 1205.2 656.4 1208.3ZM531.4 1034.5C565.2 1036.8 598.4 1046.2 632.1 1050.8C622.1 1064.4 611.9 1077.9 601.5 1091.2C591.9 1103.5 582 1115.5 572 1127.4C567.7 1132.4 563.5 1137.8 559 1142.6C553 1121.1 547.2 1099.6 541.8 1078.1C538 1063.7 534.5 1049.1 531.4 1034.5Z" fill="white"/>
<path d="M1142 1406C1137.5 1401.8 1124.2 1406.2 1117.9 1406.6C1083.4 1408.5 1049.1 1414.3 1015.9 1423.9C1024.2 1395.5 1033.7 1367.3 1041 1338.6C1045.3 1321.9 1054.7 1279.9 1058 1263C1060.4 1250.7 1032 1276 1032 1276C1032 1276 1021 1211 1006 1275.4C999.7 1302.6 994 1330 986.2 1356.8C980.2 1377.3 973.4 1397.6 967.5 1418.2C964 1430.3 961 1442.5 958.3 1454.8C956.5 1463.3 947.8 1487.7 954.1 1494C959.6 1499.5 980.2 1487.4 987.9 1484.3C1009.3 1475.6 1031.4 1468.6 1054 1463.5C1065 1461 1076 1459 1087.2 1457.4L1087.6 1457.3L1090.4 1457C1089.4 1463.7 1088.3 1470.4 1087.2 1477.1C1084.4 1494.1 1081.2 1511 1077.8 1527.9C1070.9 1561.3 1062.7 1594.5 1053.2 1627.3C1047.8 1646 1030.4 1697.6 1024.1 1716C1020.1 1727.9 1062.1 1679 1062.1 1679C1062.1 1679 1072.8 1725.8 1077.1 1713C1099.3 1647.1 1121.3 1562.3 1132.9 1493.7C1136.4 1472.7 1139.4 1451.7 1142 1430.6C1142.6 1425.1 1145.9 1409.6 1142 1406Z" fill="white"/>
<path d="M1113 516.001C1113 516.001 1157 473.001 1115.7 487.301C1070 503.201 1024.3 518.801 978.1 532.901C976.2 533.001 974.4 533.301 972.6 533.801C970.7 534.401 969 535.201 967.3 536.201C945.9 542.801 924.5 549.501 903.3 556.701C882.5 563.801 861.9 571.401 841.5 579.701C835.5 582.201 830.6 584.901 827.2 590.701C824.2 595.901 868.1 593.001 868.1 593.001C868.1 593.001 824.6 637.101 837.1 632.001C872.1 617.701 925.2 599.801 961.3 588.601C966.2 611.501 971.1 634.401 975.8 657.301C978.6 670.801 981.2 684.401 983.6 698.101C984.8 704.701 985.8 711.301 986.9 717.901C987.4 721.301 987.9 724.701 988.4 728.001C988.7 729.701 988.9 731.401 989.1 733.201C989.2 733.801 989.4 735.401 989.6 736.601C989.8 737.901 989.9 739.201 990.1 740.401C990.4 742.501 990.6 744.501 990.9 746.601C991.4 750.901 991.9 755.201 992.4 759.501C993.4 769.001 999.4 819.501 1000.2 829.001C1001.3 841.501 1018.2 770.001 1018.2 770.001C1018.2 770.001 1045.4 818.401 1044.2 805.001C1038.8 744.401 1027.2 667.901 1014.6 608.501C1012.2 597.201 1009.8 585.801 1007.4 574.401C1028.2 568.001 1048.9 561.601 1069.6 554.801C1089.5 548.201 1109.3 541.301 1128.8 533.601C1134.8 531.301 1139.8 528.301 1143.1 522.601C1145.8 517.401 1113 516.001 1113 516.001Z" fill="white"/>
<path d="M1084.2 904.3L1130.6 928.9L1470.6 416.6L1455 416C1455 416 1466.2 371.1 1454 378C1447 382 1407 420 1407 420C1407 420 1421.5 381 1411.4 377.4C1411.2 377.2 1248.6 622 1067.1 895.3L1084.2 904.3Z" fill="white"/>
<path d="M981.5 1153.5L964.9 1144.7L918.1 1119.9C738.3 1390.9 578.3 1632.2 578.4 1632.4C583.6 1649.9 653 1621 653 1621L637.6 1671.6L981.5 1153.5Z" fill="white"/>
<path d="M1458.7 1297C1438 1192 1373.9 1115.8 1291.6 1054C1280.4 1045.6 918.601 856 890.701 839.5C845.501 812.9 800.001 785.2 760.101 751.5C699.001 700 683.401 611.4 717.301 546.8C737.201 508.9 768.801 491.8 811.101 492.7C827.001 493.1 837.601 498 845.301 505.6C846.001 506.3 847.301 507.7 847.301 507.7C847.301 507.7 1018 463.9 1017.1 463C995.701 441.8 969.101 426.2 937.701 416.5C747.001 357.3 550.001 547.6 590.301 752C611.001 857 675.101 933.201 757.401 995C768.601 1003.4 1130.4 1193 1158.3 1209.5C1203.5 1236.1 1249 1263.8 1288.9 1297.5C1350 1349.1 1365.6 1437.6 1331.7 1502.3C1311.8 1540.2 1280.2 1557.3 1237.9 1556.4C1228 1556.2 1220.1 1554.2 1213.7 1550.9C1212.2 1550.1 1186.9 1529.1 1186.9 1529.1C1186.9 1529.1 1142.9 1640.2 1144.5 1640.4C1324.1 1669.6 1496.7 1489.5 1458.7 1297Z" fill="white"/>
<path d="M1607 1008.8C1607 1008.8 1642.5 983.7 1629.1 983.8C1573.3 984 1517.5 984.1 1461.6 984.8C1451.7 984.9 1441.8 985.2 1431.8 985.7C1457.5 932.4 1483.2 879 1509 825.6L1535.9 769.8C1539.5 762.3 1553.2 743.8 1548 737.9C1541.8 730.9 1517.1 737.8 1508.2 738.5C1459.7 742.2 1384.3 751.2 1336.6 760.8C1324.3 763.3 1373.5 780.1 1373.5 780.1C1373.5 780.1 1330.5 811 1343.7 808.3C1376.6 801.7 1439.9 793.6 1473.3 789.8L1396 950.3L1369.1 1006.1C1365.5 1013.6 1351.9 1032.2 1357 1038C1362.8 1044.6 1388.2 1038.8 1396.7 1037.4C1401.6 1036.6 1406.5 1035.8 1411.4 1035.2C1414 1034.9 1416.6 1034.6 1419.2 1034.4L1422.1 1034.1L1425.1 1033.9L1426.4 1033.8L1430.3 1033.6C1432.6 1033.5 1434.8 1033.4 1437.1 1033.3C1442.3 1033.1 1447.5 1033 1452.7 1032.9C1472.6 1032.6 1492.6 1032.5 1512.5 1032.4C1544 1032.2 1575.5 1032 1607 1031.9L1625.9 1031.8C1638.6 1031.7 1607 1008.8 1607 1008.8Z" fill="white"/>
<path d="M780.5 1179.3C729.4 1166 662.6 1159.6 610.1 1156C640.9 1119.8 669.3 1081.7 696.8 1043C701.8 1036 680.9 1035.5 680.9 1035.5C680.9 1035.5 713.9 1011.9 705.7 1012.3C649.5 1014.7 568.4 983.9 512.2 986.3C505.6 986.6 473.7 991 473.7 991C473.7 991 506.5 1003.6 505.8 1004.4C496.5 1009.2 475 1002.2 477.1 1013.3C492.8 1097.5 522.6 1186.1 543.4 1269C548.5 1289.2 560.3 1330.3 564.3 1350.7C555.5 1358.5 587.3 1338.4 587.3 1338.4C587.3 1338.4 550.5 1396.3 561.5 1388.6C625.4 1344.1 736.9 1252.2 795.1 1200.4C802.3 1194 758.1 1199.6 758.1 1199.6C758.1 1199.6 788.2 1181.4 780.5 1179.3ZM656.4 1208.3C672.5 1210.1 688.6 1212.4 704.5 1215.2L706 1215.5C671.6 1244.6 636.1 1272.6 599.7 1299.3C592.7 1266.7 584.2 1234.5 575.4 1202.3C602.5 1203.4 629.5 1205.2 656.4 1208.3ZM531.4 1034.5C565.2 1036.8 598.4 1046.2 632.1 1050.8C622.1 1064.4 611.9 1077.9 601.5 1091.2C591.9 1103.5 582 1115.5 572 1127.4C567.7 1132.4 563.5 1137.8 559 1142.6C553 1121.1 547.2 1099.6 541.8 1078.1C538 1063.7 534.5 1049.1 531.4 1034.5Z" fill="white"/>
<path d="M1142 1406C1137.5 1401.8 1124.2 1406.2 1117.9 1406.6C1083.4 1408.5 1049.1 1414.3 1015.9 1423.9C1024.2 1395.5 1043.2 1332.2 1050.5 1303.5C1050.5 1303.5 1149.7 1361.9 1153 1345C1155.4 1332.7 1142 1322 1142 1322C1142 1322 1179.5 1322 1158.5 1307.1C1157.26 1312.46 1017.12 1236.13 1015.9 1241.5C1010.95 1263.38 992.462 1335.28 986.2 1356.8C980.2 1377.3 973.4 1397.6 967.5 1418.2C964 1430.3 961 1442.5 958.3 1454.8C956.5 1463.3 947.8 1487.7 954.1 1494C959.6 1499.5 980.2 1487.4 987.9 1484.3C1009.3 1475.6 1031.4 1468.6 1054 1463.5C1065 1461 1076 1459 1087.2 1457.4L1087.6 1457.3L1090.4 1457C1089.4 1463.7 1088.3 1470.4 1087.2 1477.1C1084.4 1494.1 1081.2 1511 1077.8 1527.9C1070.9 1561.3 1062.7 1594.5 1053.2 1627.3C1047.8 1646 957.8 1527.6 951.5 1546C950.956 1547.59 954.1 1570.5 954.1 1570.5C954.1 1570.5 907.5 1547 936.5 1586C948 1587.43 1076.35 1723.59 1084.5 1693.5C1096.77 1648.19 1125.93 1534.92 1132.9 1493.7C1136.4 1472.7 1139.4 1451.7 1142 1430.6C1142.6 1425.1 1145.9 1409.6 1142 1406Z" fill="white"/>
<path d="M1113 516.001C1113 516.001 1157 473.001 1115.7 487.301C1070 503.201 1024.3 518.801 978.1 532.901C976.2 533.001 974.4 533.301 972.6 533.801C970.7 534.401 969 535.201 967.3 536.201C945.9 542.801 924.5 549.501 903.3 556.701C882.5 563.801 861.9 571.401 841.5 579.701C835.5 582.201 830.6 584.901 827.2 590.701C824.2 595.901 868.1 593.001 868.1 593.001C868.1 593.001 824.6 637.101 837.1 632.001C872.1 617.701 925.2 599.801 961.3 588.601C966.2 611.501 971.1 634.401 975.8 657.301C978.6 670.801 981.2 684.401 983.6 698.101C984.8 704.701 985.8 711.301 986.9 717.901C987.4 721.301 987.9 724.701 988.4 728.001C988.7 729.701 988.9 731.401 989.1 733.201C989.2 733.801 989.4 735.401 989.6 736.601C989.8 737.901 989.9 739.201 990.1 740.401C990.4 742.501 990.6 744.501 990.9 746.601C991.4 750.901 991.9 755.201 992.4 759.501C993.4 769.001 999.4 819.501 1000.2 829.001C1001.3 841.501 1018.2 770.001 1018.2 770.001C1018.2 770.001 1045.4 818.401 1044.2 805.001C1038.8 744.401 1027.2 667.901 1014.6 608.501C1012.2 597.201 1009.8 585.801 1007.4 574.401C1028.2 568.001 1048.9 561.601 1069.6 554.801C1089.5 548.201 1109.3 541.301 1128.8 533.601C1134.8 531.301 1139.8 528.301 1143.1 522.601C1145.8 517.401 1113 516.001 1113 516.001Z" fill="white"/>
</svg>
